With: Cuba Gooding Jr., James Coburn and M. Emmet Walsh

Wanneer de tandarts Ted Brooks uit Miami er achter komt dat hij genoemd wordt in een testament reist hij naar Alaska om zijn deel op te halen. Wanneer hij er arriveert blijkt echter dat hij een team sleehonden gekregen heeft. De bergman Thunder Jack wil de honden graag zelf hebben, en hij dringt er bij Ted aan om terug te keren naar een warmer klimaat. Hij besluit echter om te leren om te racen met de honden.
 
http://www.imdb.com/title/tt0281373	

------------------------ Dutch Friends ------------------------
---------------------------------------------------------------
- Bezoek ook eens mijn vrienden op:  http://www.Film-Test.nl --
----- voor mijn Nederlandse Sync. ondertitels ---- en meer ----
------- http://www.Film-Test.nl ---- Over Films en meer -------
---------------------------------------------------------------

General:

Complete name                    : Smow DogsSnow Dogs.avi
Format                           : AVI
Format/Info                      : Audio Video Interleave
File size                        : 2.15 GiB
Duration                         : 1h 35mn
Overall bit rate                 : 3 231 Kbps

Video:

Format                           : MPEG-4 Visual
Format profile                   : Simple@L3
Format settings, BVOP            : No
Format settings, QPel            : No
Format settings, GMC             : No warppoints
Format settings, Matrix          : Default (H.263)
Codec ID                         : XVID
Codec ID/Hint                    : XviD
Duration                         : 1h 35mn
Bit rate                         : 2 446 Kbps
Width                            : 704 pixels
Height                           : 396 pixels
Display aspect ratio             : 16:9
Frame rate                       : 25.000 fps
Color space                      : YUV
Chroma subsampling               : 4:2:0
Bit depth                        : 8 bits
Scan type                        : Progressive
Compression mode                 : Lossy
Bits/(Pixel*Frame)               : 0.351
Stream size                      : 1.63 GiB (76%)
Writing library                  : XviD 1.1.2 (UTC 2006-11-01)

Audio's:

Format                           : AC-3
Format/Info                      : Audio Coding 3
Mode extension                   : CM (complete main)
Codec ID                         : 2000
Duration                         : 1h 35mn
Bit rate mode                    : Constant
Bit rate                         : 384 Kbps
Channel(s)                       : 6 channels
Channel positions                : Front: L C R, Side: L R, LFE
Sampling rate                    : 48.0 KHz
Bit depth                        : 16 bits
Compression mode                 : Lossy
Stream size                      : 262 MiB (12%)
Alignment                        : Aligned on interleaves
Interleave, duration             : 32 ms (0.80 video frame)
Interleave, preload duration     : 288 ms